# WaveFront *.obj file (generated by Autodesk ATF)

mtllib AAAbat.mtl

g 솔리드1

v -22.000000 -4.977359 -0.475280
v -22.000000 -4.977359 0.475280
v -22.000000 -4.797465 -1.408663
v -22.000000 -4.797465 1.408663
v -22.000000 -4.444177 -2.291133
v -22.000000 -4.444177 2.291133
v -22.000000 -3.930266 -3.090795
v -22.000000 -3.930266 3.090795
v -22.000000 -3.274304 -3.778748
v -22.000000 -3.274304 3.778748
v -22.000000 -2.500000 -4.330127
v -22.000000 -2.500000 4.330127
v -22.000000 -1.635340 -4.725004
v -22.000000 -1.635340 4.725004
v -22.000000 -0.711574 -4.949107
v -22.000000 -0.711574 4.949107
v -22.000000 0.237910 -4.994337
v -22.000000 0.237910 4.994337
v -22.000000 1.178795 -4.859058
v -22.000000 1.178795 4.859058
v -22.000000 2.077075 -4.548160
v -22.000000 2.077075 4.548160
v -22.000000 2.900285 -4.072880
v -22.000000 2.900285 4.072880
v -22.000000 3.618670 -3.450395
v -22.000000 3.618670 3.450395
v -22.000000 4.206268 -2.703204
v -22.000000 4.206268 2.703204
v -22.000000 4.641840 -1.858312
v -22.000000 4.641840 1.858312
v -22.000000 4.909644 -0.946256
v -22.000000 4.909644 0.946256
v -22.000000 5.000000 0.000000
v 22.000000 -4.977359 -0.475280
v 22.000000 -4.977359 0.475280
v 22.000000 -4.797465 -1.408663
v 22.000000 -4.797465 1.408663
v 22.000000 -4.444177 -2.291133
v 22.000000 -4.444177 2.291133
v 22.000000 -3.930266 -3.090795
v 22.000000 -3.930266 3.090795
v 22.000000 -3.274304 -3.778748
v 22.000000 -3.274304 3.778748
v 22.000000 -2.500000 -4.330127
v 22.000000 -2.500000 4.330127
v 22.000000 -1.635340 -4.725004
v 22.000000 -1.635340 4.725004
v 22.000000 -0.711574 -4.949107
v 22.000000 -0.711574 4.949107
v 22.000000 0.237910 -4.994337
v 22.000000 0.237910 4.994337
v 22.000000 1.178795 -4.859058
v 22.000000 1.178795 4.859058
v 22.000000 2.077075 -4.548160
v 22.000000 2.077075 4.548160
v 22.000000 2.900285 -4.072880
v 22.000000 2.900285 4.072880
v 22.000000 3.618670 -3.450395
v 22.000000 3.618670 3.450395
v 22.000000 4.206268 -2.703204
v 22.000000 4.206268 2.703204
v 22.000000 4.641840 -1.858312
v 22.000000 4.641840 1.858312
v 22.000000 4.909644 -0.946256
v 22.000000 4.909644 0.946256
v 22.000000 5.000000 0.000000
vt -0.000000 0.500000 0.000000
vt -0.094626 0.490964 0.000000
vt -0.185831 0.464184 0.000000
vt -0.270320 0.420627 0.000000
vt -0.345040 0.361867 0.000000
vt -0.407288 0.290028 0.000000
vt -0.454816 0.207708 0.000000
vt -0.485906 0.117879 0.000000
vt -0.499434 0.023791 0.000000
vt -0.494911 -0.071157 0.000000
vt -0.472500 -0.163534 0.000000
vt -0.433013 -0.250000 0.000000
vt -0.377875 -0.327430 0.000000
vt -0.309079 -0.393027 0.000000
vt -0.229113 -0.444418 0.000000
vt -0.140866 -0.479746 0.000000
vt -0.047528 -0.497736 0.000000
vt 0.047528 -0.497736 0.000000
vt 0.140866 -0.479746 0.000000
vt 0.229113 -0.444418 0.000000
vt 0.309079 -0.393027 0.000000
vt 0.377875 -0.327430 0.000000
vt 0.433013 -0.250000 0.000000
vt 0.472500 -0.163534 0.000000
vt 0.494911 -0.071157 0.000000
vt 0.499434 0.023791 0.000000
vt 0.485906 0.117879 0.000000
vt 0.454816 0.207708 0.000000
vt 0.407288 0.290028 0.000000
vt 0.345040 0.361867 0.000000
vt 0.270320 0.420627 0.000000
vt 0.185831 0.464184 0.000000
vt 0.094626 0.490964 0.000000
vt 2.200000 0.000000 0.000000
vt 2.200000 0.095200 0.000000
vt 2.200000 0.190400 0.000000
vt 2.200000 0.285599 0.000000
vt 2.200000 0.380799 0.000000
vt 2.200000 0.475999 0.000000
vt 2.200000 0.571199 0.000000
vt 2.200000 0.666398 0.000000
vt 2.200000 0.761598 0.000000
vt 2.200000 0.856798 0.000000
vt 2.200000 0.951998 0.000000
vt 2.200000 1.047198 0.000000
vt 2.200000 1.142397 0.000000
vt 2.200000 1.237597 0.000000
vt 2.200000 1.332797 0.000000
vt 2.200000 1.427997 0.000000
vt 2.200000 1.523196 0.000000
vt 2.200000 -1.523196 0.000000
vt 2.200000 -1.427997 0.000000
vt 2.200000 -1.332797 0.000000
vt 2.200000 -1.237597 0.000000
vt 2.200000 -1.142397 0.000000
vt 2.200000 -1.047198 0.000000
vt 2.200000 -0.951998 0.000000
vt 2.200000 -0.856798 0.000000
vt 2.200000 -0.761598 0.000000
vt 2.200000 -0.666398 0.000000
vt 2.200000 -0.571199 0.000000
vt 2.200000 -0.475999 0.000000
vt 2.200000 -0.380799 0.000000
vt 2.200000 -0.285599 0.000000
vt 2.200000 -0.190400 0.000000
vt 2.200000 -0.095200 0.000000
vt -2.200000 0.000000 0.000000
vt -2.200000 -0.095200 0.000000
vt -2.200000 -0.190400 0.000000
vt -2.200000 -0.285599 0.000000
vt -2.200000 -0.380799 0.000000
vt -2.200000 -0.475999 0.000000
vt -2.200000 -0.571199 0.000000
vt -2.200000 -0.666398 0.000000
vt -2.200000 -0.761598 0.000000
vt -2.200000 -0.856798 0.000000
vt -2.200000 -0.951998 0.000000
vt -2.200000 -1.047198 0.000000
vt -2.200000 -1.142397 0.000000
vt -2.200000 -1.237597 0.000000
vt -2.200000 -1.332797 0.000000
vt -2.200000 -1.427997 0.000000
vt -2.200000 1.618396 0.000000
vt -2.200000 1.523196 0.000000
vt -2.200000 1.427997 0.000000
vt -2.200000 1.332797 0.000000
vt -2.200000 1.237597 0.000000
vt -2.200000 1.142397 0.000000
vt -2.200000 1.047198 0.000000
vt -2.200000 0.951998 0.000000
vt -2.200000 0.856798 0.000000
vt -2.200000 0.761598 0.000000
vt -2.200000 0.666398 0.000000
vt -2.200000 0.571199 0.000000
vt -2.200000 0.475999 0.000000
vt -2.200000 0.380799 0.000000
vt -2.200000 0.285599 0.000000
vt -2.200000 0.190400 0.000000
vt -2.200000 0.095200 0.000000
vt -2.200000 -1.523197 0.000000
vt -2.200000 -1.523197 0.000000
vt 2.200000 1.618396 0.000000
vt 2.200000 1.618396 0.000000
vt 0.000000 0.500000 0.000000
vt -0.094626 0.490964 0.000000
vt -0.185831 0.464184 0.000000
vt -0.270320 0.420627 0.000000
vt -0.345040 0.361867 0.000000
vt -0.407288 0.290028 0.000000
vt -0.454816 0.207708 0.000000
vt -0.485906 0.117879 0.000000
vt -0.499434 0.023791 0.000000
vt -0.494911 -0.071157 0.000000
vt -0.472500 -0.163534 0.000000
vt -0.433013 -0.250000 0.000000
vt -0.377875 -0.327430 0.000000
vt -0.309079 -0.393027 0.000000
vt -0.229113 -0.444418 0.000000
vt -0.140866 -0.479746 0.000000
vt -0.047528 -0.497736 0.000000
vt 0.047528 -0.497736 0.000000
vt 0.140866 -0.479746 0.000000
vt 0.229113 -0.444418 0.000000
vt 0.309079 -0.393027 0.000000
vt 0.377875 -0.327430 0.000000
vt 0.433013 -0.250000 0.000000
vt 0.472500 -0.163534 0.000000
vt 0.494911 -0.071157 0.000000
vt 0.499434 0.023791 0.000000
vt 0.485906 0.117879 0.000000
vt 0.454816 0.207708 0.000000
vt 0.407288 0.290028 0.000000
vt 0.345040 0.361867 0.000000
vt 0.270320 0.420627 0.000000
vt 0.185831 0.464184 0.000000
vt 0.094626 0.490964 0.000000
vn -0.100000 0.000000 0.000000
vn -0.100000 0.000000 0.000000
vn -0.100000 0.000000 0.000000
vn -0.100000 0.000000 0.000000
vn -0.100000 0.000000 0.000000
vn -0.100000 0.000000 0.000000
vn -0.100000 0.000000 0.000000
vn -0.100000 0.000000 0.000000
vn -0.100000 0.000000 0.000000
vn -0.100000 0.000000 0.000000
vn -0.100000 0.000000 0.000000
vn -0.100000 0.000000 0.000000
vn -0.100000 0.000000 0.000000
vn -0.100000 0.000000 0.000000
vn -0.100000 0.000000 0.000000
vn -0.100000 0.000000 0.000000
vn -0.100000 0.000000 0.000000
vn -0.100000 0.000000 0.000000
vn -0.100000 0.000000 0.000000
vn -0.100000 0.000000 0.000000
vn -0.100000 0.000000 0.000000
vn -0.100000 0.000000 0.000000
vn -0.100000 0.000000 0.000000
vn -0.100000 0.000000 0.000000
vn -0.100000 0.000000 0.000000
vn -0.100000 0.000000 0.000000
vn -0.100000 0.000000 0.000000
vn -0.100000 0.000000 0.000000
vn -0.100000 0.000000 0.000000
vn -0.100000 0.000000 0.000000
vn -0.100000 0.000000 0.000000
vn -0.100000 0.000000 0.000000
vn -0.100000 0.000000 0.000000
vn 0.000000 0.100000 0.000000
vn 0.000000 0.098193 0.018925
vn 0.000000 0.092837 0.037166
vn 0.000000 0.084125 0.054064
vn 0.000000 0.072373 0.069008
vn 0.000000 0.058006 0.081458
vn 0.000000 0.041542 0.090963
vn 0.000000 0.023576 0.097181
vn 0.000000 0.004758 0.099887
vn 0.000000 -0.014231 0.098982
vn 0.000000 -0.032707 0.094500
vn 0.000000 -0.050000 0.086603
vn 0.000000 -0.065486 0.075575
vn 0.000000 -0.078605 0.061816
vn 0.000000 -0.088884 0.045823
vn 0.000000 -0.095949 0.028173
vn 0.000000 -0.099547 0.009506
vn 0.000000 -0.099547 -0.009506
vn 0.000000 -0.095949 -0.028173
vn 0.000000 -0.088884 -0.045823
vn 0.000000 -0.078605 -0.061816
vn 0.000000 -0.065486 -0.075575
vn 0.000000 -0.050000 -0.086603
vn 0.000000 -0.032707 -0.094500
vn 0.000000 -0.014231 -0.098982
vn 0.000000 0.004758 -0.099887
vn 0.000000 0.023576 -0.097181
vn 0.000000 0.041542 -0.090963
vn 0.000000 0.058006 -0.081458
vn 0.000000 0.072373 -0.069008
vn 0.000000 0.084125 -0.054064
vn 0.000000 0.092837 -0.037166
vn 0.000000 0.098193 -0.018925
vn 0.000000 0.100000 0.000000
vn 0.000000 0.098193 -0.018925
vn 0.000000 0.092837 -0.037166
vn 0.000000 0.084125 -0.054064
vn 0.000000 0.072373 -0.069008
vn 0.000000 0.058006 -0.081458
vn 0.000000 0.041542 -0.090963
vn 0.000000 0.023576 -0.097181
vn 0.000000 0.004758 -0.099887
vn 0.000000 -0.014231 -0.098982
vn 0.000000 -0.032707 -0.094500
vn 0.000000 -0.050000 -0.086603
vn 0.000000 -0.065486 -0.075575
vn 0.000000 -0.078605 -0.061816
vn 0.000000 -0.088884 -0.045823
vn 0.000000 -0.095949 -0.028173
vn 0.000000 -0.099547 -0.009506
vn 0.000000 -0.099547 0.009506
vn 0.000000 -0.095949 0.028173
vn 0.000000 -0.088884 0.045823
vn 0.000000 -0.078605 0.061816
vn 0.000000 -0.065486 0.075575
vn 0.000000 -0.050000 0.086603
vn 0.000000 -0.032707 0.094500
vn 0.000000 -0.014231 0.098982
vn 0.000000 0.004758 0.099887
vn 0.000000 0.023576 0.097181
vn 0.000000 0.041542 0.090963
vn 0.000000 0.058006 0.081458
vn 0.000000 0.072373 0.069008
vn 0.000000 0.084125 0.054064
vn 0.000000 0.092837 0.037166
vn 0.000000 0.098193 0.018925
vn 0.000000 -0.099547 -0.009506
vn 0.000000 -0.099547 -0.009506
vn 0.000000 -0.099547 -0.009506
vn 0.000000 -0.099547 -0.009506
vn 0.100000 0.000000 0.000000
vn 0.100000 0.000000 0.000000
vn 0.100000 0.000000 0.000000
vn 0.100000 0.000000 0.000000
vn 0.100000 0.000000 0.000000
vn 0.100000 0.000000 0.000000
vn 0.100000 0.000000 0.000000
vn 0.100000 0.000000 0.000000
vn 0.100000 0.000000 0.000000
vn 0.100000 0.000000 0.000000
vn 0.100000 0.000000 0.000000
vn 0.100000 0.000000 0.000000
vn 0.100000 0.000000 0.000000
vn 0.100000 0.000000 0.000000
vn 0.100000 0.000000 0.000000
vn 0.100000 0.000000 0.000000
vn 0.100000 0.000000 0.000000
vn 0.100000 0.000000 0.000000
vn 0.100000 0.000000 0.000000
vn 0.100000 0.000000 0.000000
vn 0.100000 0.000000 0.000000
vn 0.100000 0.000000 0.000000
vn 0.100000 0.000000 0.000000
vn 0.100000 0.000000 0.000000
vn 0.100000 0.000000 0.000000
vn 0.100000 0.000000 0.000000
vn 0.100000 0.000000 0.000000
vn 0.100000 0.000000 0.000000
vn 0.100000 0.000000 0.000000
vn 0.100000 0.000000 0.000000
vn 0.100000 0.000000 0.000000
vn 0.100000 0.000000 0.000000
vn 0.100000 0.000000 0.000000
usemtl 191,191,191
f 33/1/1 31/2/2 32/33/33
f 32/33/33 31/2/2 30/32/32
f 30/32/32 31/2/2 29/3/3
f 30/32/32 29/3/3 28/31/31
f 28/31/31 29/3/3 27/4/4
f 28/31/31 27/4/4 26/30/30
f 26/30/30 27/4/4 25/5/5
f 26/30/30 25/5/5 24/29/29
f 24/29/29 25/5/5 23/6/6
f 24/29/29 23/6/6 22/28/28
f 22/28/28 23/6/6 21/7/7
f 22/28/28 21/7/7 20/27/27
f 20/27/27 21/7/7 19/8/8
f 20/27/27 19/8/8 18/26/26
f 18/26/26 19/8/8 17/9/9
f 18/26/26 17/9/9 16/25/25
f 16/25/25 17/9/9 15/10/10
f 16/25/25 15/10/10 14/24/24
f 14/24/24 15/10/10 13/11/11
f 14/24/24 13/11/11 12/23/23
f 12/23/23 13/11/11 11/12/12
f 12/23/23 11/12/12 10/22/22
f 10/22/22 11/12/12 9/13/13
f 10/22/22 9/13/13 8/21/21
f 8/21/21 9/13/13 7/14/14
f 8/21/21 7/14/14 6/20/20
f 6/20/20 7/14/14 5/15/15
f 6/20/20 5/15/15 4/19/19
f 4/19/19 5/15/15 3/16/16
f 4/19/19 3/16/16 2/18/18
f 2/18/18 3/16/16 1/17/17
f 32/35/35 66/67/67 33/34/34
f 33/34/34 66/67/67 64/68/68
f 33/34/34 64/68/68 31/66/66
f 31/66/66 64/68/68 62/69/69
f 31/66/66 62/69/69 29/65/65
f 29/65/65 62/69/69 60/70/70
f 29/65/65 60/70/70 27/64/64
f 27/64/64 60/70/70 58/71/71
f 27/64/64 58/71/71 25/63/63
f 25/63/63 58/71/71 56/72/72
f 25/63/63 56/72/72 23/62/62
f 23/62/62 56/72/72 54/73/73
f 23/62/62 54/73/73 21/61/61
f 21/61/61 54/73/73 52/74/74
f 21/61/61 52/74/74 19/60/60
f 19/60/60 52/74/74 50/75/75
f 19/60/60 50/75/75 17/59/59
f 17/59/59 50/75/75 48/76/76
f 17/59/59 48/76/76 15/58/58
f 15/58/58 48/76/76 46/77/77
f 15/58/58 46/77/77 13/57/57
f 13/57/57 46/77/77 44/78/78
f 13/57/57 44/78/78 11/56/56
f 11/56/56 44/78/78 42/79/79
f 11/56/56 42/79/79 9/55/55
f 9/55/55 42/79/79 40/80/80
f 9/55/55 40/80/80 7/54/54
f 7/54/54 40/80/80 38/81/81
f 7/54/54 38/81/81 5/53/53
f 5/53/53 38/81/81 36/82/82
f 5/53/53 36/82/82 3/52/52
f 3/52/52 36/82/82 34/100/100
f 3/52/52 34/101/101 1/51/51
f 1/102/102 34/83/83 35/84/84
f 1/103/103 35/84/84 2/50/50
f 2/50/50 35/84/84 37/85/85
f 2/50/50 37/85/85 4/49/49
f 4/49/49 37/85/85 39/86/86
f 4/49/49 39/86/86 6/48/48
f 6/48/48 39/86/86 41/87/87
f 6/48/48 41/87/87 8/47/47
f 8/47/47 41/87/87 43/88/88
f 8/47/47 43/88/88 10/46/46
f 10/46/46 43/88/88 45/89/89
f 10/46/46 45/89/89 12/45/45
f 12/45/45 45/89/89 47/90/90
f 12/45/45 47/90/90 14/44/44
f 14/44/44 47/90/90 49/91/91
f 14/44/44 49/91/91 16/43/43
f 16/43/43 49/91/91 51/92/92
f 16/43/43 51/92/92 18/42/42
f 18/42/42 51/92/92 53/93/93
f 18/42/42 53/93/93 20/41/41
f 20/41/41 53/93/93 55/94/94
f 20/41/41 55/94/94 22/40/40
f 22/40/40 55/94/94 57/95/95
f 22/40/40 57/95/95 24/39/39
f 24/39/39 57/95/95 59/96/96
f 24/39/39 59/96/96 26/38/38
f 26/38/38 59/96/96 61/97/97
f 26/38/38 61/97/97 28/37/37
f 28/37/37 61/97/97 63/98/98
f 28/37/37 63/98/98 30/36/36
f 30/36/36 63/98/98 65/99/99
f 30/36/36 65/99/99 32/35/35
f 32/35/35 65/99/99 66/67/67
f 66/104/104 65/105/105 64/136/136
f 64/136/136 65/105/105 62/135/135
f 62/135/135 65/105/105 63/106/106
f 62/135/135 63/106/106 60/134/134
f 60/134/134 63/106/106 61/107/107
f 60/134/134 61/107/107 58/133/133
f 58/133/133 61/107/107 59/108/108
f 58/133/133 59/108/108 56/132/132
f 56/132/132 59/108/108 57/109/109
f 56/132/132 57/109/109 54/131/131
f 54/131/131 57/109/109 55/110/110
f 54/131/131 55/110/110 52/130/130
f 52/130/130 55/110/110 53/111/111
f 52/130/130 53/111/111 50/129/129
f 50/129/129 53/111/111 51/112/112
f 50/129/129 51/112/112 48/128/128
f 48/128/128 51/112/112 49/113/113
f 48/128/128 49/113/113 46/127/127
f 46/127/127 49/113/113 47/114/114
f 46/127/127 47/114/114 44/126/126
f 44/126/126 47/114/114 45/115/115
f 44/126/126 45/115/115 42/125/125
f 42/125/125 45/115/115 43/116/116
f 42/125/125 43/116/116 40/124/124
f 40/124/124 43/116/116 41/117/117
f 40/124/124 41/117/117 38/123/123
f 38/123/123 41/117/117 39/118/118
f 38/123/123 39/118/118 36/122/122
f 36/122/122 39/118/118 37/119/119
f 36/122/122 37/119/119 34/121/121
f 34/121/121 37/119/119 35/120/120

# 66 vertices
# 136 texture params
# 136 normals
# 128 facets

# 1 groups
